<svg version="1.1" id="Layer_1" xmlns="http://www.w3.org/2000/svg" xmlns:xlink="http://www.w3.org/1999/xlink" x="0px" y="0px"
	 width="100%" viewBox="0 0 463 103" enable-background="new 0 0 463 103" xml:space="preserve">
<path fill="#F0FDE9" opacity="1.000000" stroke="none" 
	d="
M308.000000,104.000000 
	C205.333344,104.000000 103.166695,104.000000 1.000027,104.000000 
	C1.000018,69.666679 1.000018,35.333366 1.000009,1.000037 
	C155.333298,1.000024 309.666595,1.000024 463.999939,1.000012 
	C463.999939,35.333294 463.999939,69.666588 463.999969,103.999939 
	C412.166656,104.000000 360.333344,104.000000 308.000000,104.000000 
M236.369110,75.489029 
	C238.586395,75.642319 240.803680,75.795609 243.506760,76.272034 
	C243.317276,77.520432 243.127777,78.768829 242.938293,80.017235 
	C243.583710,80.469856 244.229141,80.922485 244.874557,81.375107 
	C245.300751,80.310509 245.621170,79.187752 246.169540,78.190323 
	C251.633224,68.252380 253.432480,57.522163 251.912842,46.465878 
	C250.001114,32.556934 244.034164,20.888998 230.732864,13.399661 
	C230.167191,13.234209 229.601532,13.068756 228.630981,12.366591 
	C227.379837,11.917495 226.128708,11.468397 224.750214,10.722620 
	C224.564941,10.515070 224.377304,10.512822 223.503510,10.237779 
	C222.956619,10.168359 222.409744,10.098938 221.750320,9.834931 
	C221.750320,9.834931 221.380722,9.946170 220.593735,9.531578 
	C219.725815,9.400251 218.857895,9.268925 217.508408,8.970628 
	C217.340469,8.996378 217.172531,9.022127 216.221405,8.777862 
	C213.483871,8.761440 210.746338,8.745018 207.509186,8.524154 
	C206.996063,8.659486 206.482956,8.794818 205.109924,8.834483 
	C203.742584,9.166503 202.375229,9.498523 200.385071,9.792708 
	C199.436386,10.145407 198.487686,10.498105 197.227661,10.773282 
	C197.227661,10.773282 196.999695,10.999057 196.341110,10.947900 
	C195.547348,11.287012 194.753601,11.626124 193.397888,11.945230 
	C192.939575,12.251360 192.481262,12.557489 191.327286,12.862828 
	C190.165283,13.553848 189.003281,14.244868 187.204544,15.077142 
	C185.800385,16.052341 184.396240,17.027542 182.334381,18.157740 
	C179.443161,20.766417 176.551941,23.375092 173.056351,26.424726 
	C172.734222,26.963818 172.488632,27.570990 172.078644,28.031939 
	C163.947205,37.174362 159.226105,47.802399 157.865479,60.793659 
	C158.519760,67.965981 158.942535,75.170418 159.931061,82.296371 
	C160.389786,85.602989 162.126343,88.504440 160.764740,92.230278 
	C159.687500,95.177979 160.872162,97.929398 163.430634,97.131317 
	C165.771103,92.322365 167.524323,88.720047 169.822922,85.202278 
	C173.425522,83.748314 177.028107,82.294350 181.155853,80.848434 
	C181.438583,80.654800 181.721313,80.461166 182.629822,80.054375 
	C183.063782,79.982605 183.497742,79.910843 184.400909,80.423721 
	C187.923294,79.616692 191.445694,78.809669 195.551086,77.963684 
	C196.033600,77.677498 196.516129,77.391304 197.634552,77.087593 
	C198.424454,77.641121 199.214371,78.194656 199.373718,79.101280 
	C196.912323,81.155563 195.779343,83.667168 198.366791,86.149590 
	C201.061295,88.734703 203.651703,87.552185 206.599518,84.949593 
	C208.062759,85.618805 210.131805,85.895638 210.869598,87.034729 
	C212.693710,89.851028 214.243790,89.497856 216.888382,87.428459 
	C222.118774,86.286903 222.756622,85.138947 220.992126,79.290565 
	C221.000839,78.491035 221.009537,77.691513 221.518387,76.931168 
	C221.685059,76.944130 221.851715,76.957085 222.089996,77.562553 
	C222.493393,77.876030 222.896805,78.189507 223.300201,78.502983 
	C223.521545,77.986862 223.742889,77.470749 224.189072,76.487244 
	C224.470459,76.051735 224.751862,75.616234 225.857239,75.069153 
	C227.240875,75.119659 228.624512,75.170158 230.661499,75.680626 
	C232.297714,75.690651 233.933929,75.700676 236.369110,75.489029 
M316.069946,43.500504 
	C316.069946,37.396488 316.069946,31.292471 316.069946,25.233341 
	C308.544678,24.787519 308.526886,24.776031 304.911621,30.376883 
	C300.468506,37.260242 296.058899,44.165241 291.370300,51.473167 
	C286.470734,43.847477 281.527069,36.931240 277.453522,29.535713 
	C274.800720,24.719515 271.467285,24.287453 267.102783,25.363205 
	C267.102783,41.383862 267.102783,57.112644 267.102783,72.855072 
	C270.616455,72.855072 273.844818,72.855072 277.597656,72.855072 
	C277.597656,64.551544 277.597656,56.568077 277.597656,47.096123 
	C280.960052,52.271748 283.463043,56.151951 285.994324,60.013592 
	C288.877319,64.411835 294.126221,64.256088 296.958984,59.744205 
	C299.418915,55.826126 301.944611,51.949333 304.441223,48.054287 
	C304.781830,48.208374 305.122467,48.362461 305.463104,48.516544 
	C305.463104,56.622017 305.463104,64.727486 305.463104,72.986969 
	C309.072632,72.986969 312.334412,72.986969 316.069916,72.986969 
	C316.069916,63.369823 316.069916,53.935108 316.069946,43.500504 
M11.273268,60.484844 
	C11.273268,64.599037 11.273268,68.713226 11.273268,73.011909 
	C19.468090,73.011909 27.136538,73.459747 34.732250,72.907379 
	C46.246559,72.070061 55.267799,62.605762 56.008312,51.446743 
	C56.842243,38.879971 50.058186,28.320435 38.223152,26.186481 
	C29.547384,24.622169 20.512074,25.051905 11.273265,24.574100 
	C11.273265,36.897289 11.273265,48.192986 11.273268,60.484844 
M144.268250,71.776085 
	C147.095825,72.388084 149.923401,73.000084 152.922699,73.649254 
	C152.922699,56.786510 152.922699,41.055450 152.922699,25.268768 
	C149.414993,25.268768 146.172211,25.268768 142.566498,25.268768 
	C142.566498,34.591930 142.566498,43.649879 142.566498,53.790905 
	C140.952332,51.965374 139.981552,50.969925 139.126328,49.883507 
	C133.882507,43.222050 128.378952,36.738956 123.543983,29.791374 
	C120.568924,25.516390 117.272148,23.930597 112.429382,25.440126 
	C112.429382,41.326927 112.429382,57.179798 112.429382,72.881378 
	C116.078957,72.881378 119.341225,72.881378 123.159012,72.881378 
	C123.159012,63.626457 123.159012,54.651169 123.159012,44.717899 
	C130.500732,54.119171 137.146011,62.628635 144.268250,71.776085 
M381.539978,24.998449 
	C379.292450,24.998449 377.044891,24.998449 375.019470,24.998449 
	C375.019470,41.439240 375.019470,57.172386 375.019470,72.830368 
	C378.576324,72.830368 381.797577,72.830368 385.446777,72.830368 
	C385.446777,66.261894 385.446777,60.043213 385.446777,53.824532 
	C389.774017,58.071987 393.147278,62.689404 396.521027,67.306458 
	C401.172607,73.672165 404.535034,74.725868 412.772644,72.309959 
	C407.989929,66.004044 403.239807,59.741112 398.816559,53.909145 
	C401.961517,51.666382 405.220276,50.081692 407.454468,47.581455 
	C411.093018,43.509708 411.208466,38.430069 409.135803,33.511158 
	C406.732452,27.807400 401.727539,25.593615 396.012146,25.104500 
	C391.548828,24.722532 387.028259,25.008923 381.539978,24.998449 
M365.816864,63.679394 
	C360.708862,50.784695 355.600861,37.889992 350.492432,24.994307 
	C347.942749,24.994307 345.733276,24.716846 343.642242,25.094706 
	C342.312988,25.334915 340.478851,26.270039 340.029999,27.367510 
	C333.886200,42.389801 327.944580,57.494793 321.716339,73.175888 
	C325.019806,73.175888 327.826538,73.401535 330.565430,73.068779 
	C331.718445,72.928696 333.535767,71.729378 333.672729,70.806931 
	C334.598114,64.573265 338.681671,63.974552 343.755463,64.487274 
	C346.228760,64.737206 348.763000,64.705719 351.242310,64.488930 
	C354.041870,64.244141 355.773926,65.174385 356.186401,68.025101 
	C356.851929,72.624535 359.626312,73.895798 363.894257,73.223846 
	C365.498749,72.971230 367.176331,73.182899 369.383881,73.182899 
	C368.132233,69.933167 367.072601,67.181969 365.816864,63.679394 
M89.270180,28.017569 
	C88.069382,22.851286 83.912079,25.329365 81.060005,25.192427 
	C79.783089,25.131119 77.795380,26.939184 77.174805,28.356333 
	C74.316933,34.882671 71.822227,41.568268 69.206917,48.200546 
	C65.996696,56.341442 62.796066,64.486115 59.455086,72.975227 
	C63.509884,72.975227 66.958855,72.975227 71.067841,72.975227 
	C70.826706,64.238396 76.492157,63.790936 83.017059,64.497581 
	C84.992279,64.711487 87.028366,64.723213 89.001465,64.507065 
	C91.549316,64.227936 93.274437,64.986282 93.656792,67.613853 
	C94.394249,72.681595 97.521614,73.889679 102.072937,73.215096 
	C103.519318,73.000717 105.024284,73.181587 107.015663,73.181587 
	C101.101494,58.033916 95.379974,43.379673 89.270180,28.017569 
M413.270447,27.607771 
	C413.270447,29.712389 413.270447,31.817009 413.270447,34.468166 
	C418.526337,34.468166 423.249329,34.468166 428.387512,34.468166 
	C428.387512,47.603451 428.387512,60.188232 428.387512,72.803024 
	C432.200409,72.803024 435.566376,72.803024 439.290802,72.803024 
	C439.290802,59.863091 439.290802,47.294476 439.290802,34.287930 
	C444.378021,34.287930 449.113831,34.287930 453.859314,34.287930 
	C453.859314,30.956995 453.859314,28.084824 453.859314,24.995293 
	C441.083282,24.995293 428.624084,24.957291 416.166199,25.069473 
	C415.198944,25.078184 414.241180,26.139988 413.270447,27.607771 
M175.339188,86.131348 
	C172.478851,88.149948 169.618530,90.168541 166.758194,92.187134 
	C167.136063,92.672600 167.513931,93.158066 167.891785,93.643532 
	C172.170166,93.023399 174.726471,90.380867 175.339188,86.131348 
z"/>
<path fill="#EEFDE7" opacity="1.000000" stroke="none" 
	d="
M196.998642,77.105110 
	C196.516129,77.391304 196.033600,77.677498 195.006119,77.740997 
	C192.853455,73.109840 192.218918,73.027763 188.557526,76.820221 
	C180.456299,78.026970 172.947083,79.669502 166.403320,84.891762 
	C165.288330,84.030121 164.193497,83.248810 163.856552,82.219414 
	C162.757416,78.861626 161.934814,75.413322 161.053925,71.541275 
	C161.079788,67.391144 161.057541,63.699570 161.216736,59.675083 
	C162.916122,49.929985 166.264221,41.270199 171.869186,33.502991 
	C172.792938,32.222900 173.369385,30.692184 174.462189,29.204102 
	C178.285736,26.117609 181.753433,23.104311 185.557999,20.019852 
	C189.726700,17.990328 193.558517,16.031967 197.458893,14.159752 
	C197.527420,14.245895 197.831482,13.982374 198.223358,14.009649 
	C201.287659,13.397273 203.960114,12.757621 206.806641,12.217762 
	C207.351456,12.226625 207.722183,12.135696 208.493179,12.107537 
	C210.240311,12.123818 211.587173,12.077331 213.038116,12.138306 
	C213.142197,12.245768 213.436859,12.285138 213.436859,12.285138 
	C213.436859,12.285138 213.661255,12.090326 214.062988,12.262712 
	C216.465546,12.674650 218.466385,12.914205 220.717865,13.397313 
	C221.644409,13.754350 222.320312,13.867833 223.280334,14.186356 
	C231.840057,17.729507 238.413910,23.066381 242.846542,30.886978 
	C250.779114,44.882603 250.187958,59.297863 244.487961,74.020386 
	C237.515137,73.702400 230.971283,73.297539 224.527985,72.515114 
	C227.326492,63.894550 230.024429,55.651554 233.028961,46.471882 
	C230.284439,46.471882 228.680984,46.474758 227.077545,46.471405 
	C217.604462,46.451584 208.119629,46.144894 198.663391,46.533863 
	C194.155487,46.719292 192.294510,45.337372 191.228165,40.971954 
	C189.099991,32.259556 188.293350,31.843914 179.737335,32.338589 
	C178.444138,32.413349 177.216965,33.629940 175.959244,34.318371 
	C177.171158,34.865894 178.492950,36.043758 179.576523,35.854912 
	C185.104126,34.891541 186.910446,37.500851 188.115906,42.560398 
	C190.710785,53.451633 194.078674,64.158699 197.070221,75.189102 
	C197.014267,75.607086 197.018295,75.777115 196.999374,76.236282 
	C196.983856,76.718658 196.991257,76.911880 196.998642,77.105110 
z"/>
<path fill="#050605" opacity="1.000000" stroke="none" 
	d="
M316.069946,44.000450 
	C316.069916,53.935108 316.069916,63.369823 316.069916,72.986969 
	C312.334412,72.986969 309.072632,72.986969 305.463104,72.986969 
	C305.463104,64.727486 305.463104,56.622017 305.463104,48.516544 
	C305.122467,48.362461 304.781830,48.208374 304.441223,48.054287 
	C301.944611,51.949333 299.418915,55.826126 296.958984,59.744205 
	C294.126221,64.256088 288.877319,64.411835 285.994324,60.013592 
	C283.463043,56.151951 280.960052,52.271748 277.597656,47.096123 
	C277.597656,56.568077 277.597656,64.551544 277.597656,72.855072 
	C273.844818,72.855072 270.616455,72.855072 267.102783,72.855072 
	C267.102783,57.112644 267.102783,41.383862 267.102783,25.363205 
	C271.467285,24.287453 274.800720,24.719515 277.453522,29.535713 
	C281.527069,36.931240 286.470734,43.847477 291.370300,51.473167 
	C296.058899,44.165241 300.468506,37.260242 304.911621,30.376883 
	C308.526886,24.776031 308.544678,24.787519 316.069946,25.233341 
	C316.069946,31.292471 316.069946,37.396488 316.069946,44.000450 
z"/>
<path fill="#070807" opacity="1.000000" stroke="none" 
	d="
M11.273266,59.986763 
	C11.273265,48.192986 11.273265,36.897289 11.273265,24.574100 
	C20.512074,25.051905 29.547384,24.622169 38.223152,26.186481 
	C50.058186,28.320435 56.842243,38.879971 56.008312,51.446743 
	C55.267799,62.605762 46.246559,72.070061 34.732250,72.907379 
	C27.136538,73.459747 19.468090,73.011909 11.273268,73.011909 
	C11.273268,68.713226 11.273268,64.599037 11.273266,59.986763 
M22.072067,46.518188 
	C22.072067,52.253716 22.072067,57.989246 22.072067,63.813240 
	C30.579771,63.931961 39.010525,65.333298 43.419086,56.673935 
	C46.356197,50.904827 46.180984,44.592537 41.878368,39.328556 
	C36.600620,32.871559 29.304483,34.217644 22.072407,34.622616 
	C22.072407,38.568470 22.072407,42.049049 22.072067,46.518188 
z"/>
<path fill="#040504" opacity="1.000000" stroke="none" 
	d="
M144.029770,71.457092 
	C137.146011,62.628635 130.500732,54.119171 123.159012,44.717899 
	C123.159012,54.651169 123.159012,63.626457 123.159012,72.881378 
	C119.341225,72.881378 116.078957,72.881378 112.429382,72.881378 
	C112.429382,57.179798 112.429382,41.326927 112.429382,25.440126 
	C117.272148,23.930597 120.568924,25.516390 123.543983,29.791374 
	C128.378952,36.738956 133.882507,43.222050 139.126328,49.883507 
	C139.981552,50.969925 140.952332,51.965374 142.566498,53.790905 
	C142.566498,43.649879 142.566498,34.591930 142.566498,25.268768 
	C146.172211,25.268768 149.414993,25.268768 152.922699,25.268768 
	C152.922699,41.055450 152.922699,56.786510 152.922699,73.649254 
	C149.923401,73.000084 147.095825,72.388084 144.029770,71.457092 
z"/>
<path fill="#040604" opacity="1.000000" stroke="none" 
	d="
M382.036560,24.998386 
	C387.028259,25.008923 391.548828,24.722532 396.012146,25.104500 
	C401.727539,25.593615 406.732452,27.807400 409.135803,33.511158 
	C411.208466,38.430069 411.093018,43.509708 407.454468,47.581455 
	C405.220276,50.081692 401.961517,51.666382 398.816559,53.909145 
	C403.239807,59.741112 407.989929,66.004044 412.772644,72.309959 
	C404.535034,74.725868 401.172607,73.672165 396.521027,67.306458 
	C393.147278,62.689404 389.774017,58.071987 385.446777,53.824532 
	C385.446777,60.043213 385.446777,66.261894 385.446777,72.830368 
	C381.797577,72.830368 378.576324,72.830368 375.019470,72.830368 
	C375.019470,57.172386 375.019470,41.439240 375.019470,24.998449 
	C377.044891,24.998449 379.292450,24.998449 382.036560,24.998386 
M398.432312,43.109562 
	C398.351013,40.507111 399.092560,36.106888 398.040497,35.625343 
	C394.258331,33.894234 389.870544,33.486435 385.519836,32.536682 
	C385.519836,37.644279 385.519836,41.352638 385.519836,46.018509 
	C389.993866,45.198921 393.953125,44.473633 398.432312,43.109562 
z"/>
<path fill="#080907" opacity="1.000000" stroke="none" 
	d="
M365.914917,64.055084 
	C367.072601,67.181969 368.132233,69.933167 369.383881,73.182899 
	C367.176331,73.182899 365.498749,72.971230 363.894257,73.223846 
	C359.626312,73.895798 356.851929,72.624535 356.186401,68.025101 
	C355.773926,65.174385 354.041870,64.244141 351.242310,64.488930 
	C348.763000,64.705719 346.228760,64.737206 343.755463,64.487274 
	C338.681671,63.974552 334.598114,64.573265 333.672729,70.806931 
	C333.535767,71.729378 331.718445,72.928696 330.565430,73.068779 
	C327.826538,73.401535 325.019806,73.175888 321.716339,73.175888 
	C327.944580,57.494793 333.886200,42.389801 340.029999,27.367510 
	C340.478851,26.270039 342.312988,25.334915 343.642242,25.094706 
	C345.733276,24.716846 347.942749,24.994307 350.492432,24.994307 
	C355.600861,37.889992 360.708862,50.784695 365.914917,64.055084 
M343.685333,55.869102 
	C346.136841,55.869102 348.588348,55.869102 351.772583,55.869102 
	C349.682739,50.029507 347.784058,44.724041 345.602356,38.627651 
	C343.582794,43.996674 341.922577,48.478508 340.209167,52.939919 
	C339.180176,55.619286 340.499146,56.133854 343.685333,55.869102 
z"/>
<path fill="#070907" opacity="1.000000" stroke="none" 
	d="
M89.464317,28.371498 
	C95.379974,43.379673 101.101494,58.033916 107.015663,73.181587 
	C105.024284,73.181587 103.519318,73.000717 102.072937,73.215096 
	C97.521614,73.889679 94.394249,72.681595 93.656792,67.613853 
	C93.274437,64.986282 91.549316,64.227936 89.001465,64.507065 
	C87.028366,64.723213 84.992279,64.711487 83.017059,64.497581 
	C76.492157,63.790936 70.826706,64.238396 71.067841,72.975227 
	C66.958855,72.975227 63.509884,72.975227 59.455086,72.975227 
	C62.796066,64.486115 65.996696,56.341442 69.206917,48.200546 
	C71.822227,41.568268 74.316933,34.882671 77.174805,28.356333 
	C77.795380,26.939184 79.783089,25.131119 81.060005,25.192427 
	C83.912079,25.329365 88.069382,22.851286 89.464317,28.371498 
M81.205940,43.711464 
	C79.841476,47.642639 78.477013,51.573814 77.106575,55.522179 
	C81.455467,55.522179 85.148605,55.522179 89.310791,55.522179 
	C87.288666,49.958420 85.442131,44.877800 83.228729,38.787758 
	C82.385994,40.940617 81.979881,41.978092 81.205940,43.711464 
z"/>
<path fill="#060706" opacity="1.000000" stroke="none" 
	d="
M413.274719,27.160053 
	C414.241180,26.139988 415.198944,25.078184 416.166199,25.069473 
	C428.624084,24.957291 441.083282,24.995293 453.859314,24.995293 
	C453.859314,28.084824 453.859314,30.956995 453.859314,34.287930 
	C449.113831,34.287930 444.378021,34.287930 439.290802,34.287930 
	C439.290802,47.294476 439.290802,59.863091 439.290802,72.803024 
	C435.566376,72.803024 432.200409,72.803024 428.387512,72.803024 
	C428.387512,60.188232 428.387512,47.603451 428.387512,34.468166 
	C423.249329,34.468166 418.526337,34.468166 413.270447,34.468166 
	C413.270447,31.817009 413.270447,29.712389 413.274719,27.160053 
z"/>
<path fill="#1A7E1B" opacity="1.000000" stroke="none" 
	d="
M206.632553,12.117968 
	C203.960114,12.757621 201.287659,13.397273 198.147919,14.013141 
	C197.680618,13.989356 197.390350,14.073607 197.390350,14.073607 
	C193.558517,16.031967 189.726700,17.990328 185.220062,19.959110 
	C184.027527,19.313938 183.509811,18.658346 182.992096,18.002747 
	C184.396240,17.027542 185.800385,16.052341 187.873535,14.997791 
	C189.702652,14.233497 190.862793,13.548553 192.022934,12.863613 
	C192.481262,12.557489 192.939575,12.251360 194.017975,11.969829 
	C195.425278,11.662638 196.212479,11.330848 196.999695,10.999058 
	C196.999695,10.999057 197.227661,10.773282 197.717377,10.849739 
	C199.140686,10.560978 200.074295,10.195758 201.007889,9.830542 
	C202.375229,9.498523 203.742584,9.166503 205.666489,9.092310 
	C206.818298,9.142958 207.413559,8.935778 208.008804,8.728598 
	C210.746338,8.745018 213.483871,8.761440 216.696671,9.064455 
	C217.444611,9.279898 217.717300,9.208747 217.989975,9.137597 
	C218.857895,9.268925 219.725815,9.400251 221.065643,9.761673 
	C221.537567,9.991767 221.862854,10.029516 221.862854,10.029516 
	C222.409744,10.098938 222.956619,10.168359 223.947083,10.553092 
	C224.542160,10.953553 224.704453,11.003850 224.877563,11.019299 
	C226.128708,11.468397 227.379837,11.917495 228.858521,12.932639 
	C229.734161,13.639788 230.382248,13.780889 231.030334,13.921989 
	C244.034164,20.888998 250.001114,32.556934 251.912842,46.465878 
	C253.432480,57.522163 251.633224,68.252380 246.169540,78.190323 
	C245.621170,79.187752 245.300751,80.310509 244.874557,81.375107 
	C244.229141,80.922485 243.583710,80.469856 242.938293,80.017235 
	C243.127777,78.768829 243.317276,77.520432 243.423828,75.865013 
	C243.866257,74.949837 244.391602,74.441681 244.916946,73.933533 
	C250.187958,59.297863 250.779114,44.882603 242.846542,30.886978 
	C238.413910,23.066381 231.840057,17.729507 223.040955,13.929434 
	C221.834045,13.362902 221.150620,13.258329 220.467209,13.153759 
	C218.466385,12.914205 216.465546,12.674650 213.944122,12.233163 
	C213.423508,12.031229 212.934052,12.030845 212.934052,12.030844 
	C211.587173,12.077331 210.240311,12.123818 208.127289,12.107787 
	C207.118271,12.069501 206.875412,12.093734 206.632553,12.117968 
z"/>
<path fill="#207F20" opacity="1.000000" stroke="none" 
	d="
M161.005829,71.999832 
	C161.934814,75.413322 162.757416,78.861626 163.856552,82.219414 
	C164.193497,83.248810 165.288330,84.030121 166.822327,84.920547 
	C168.164871,84.983284 168.721207,85.050499 169.277527,85.117722 
	C167.524323,88.720047 165.771103,92.322365 163.430634,97.131317 
	C160.872162,97.929398 159.687500,95.177979 160.764740,92.230278 
	C162.126343,88.504440 160.389786,85.602989 159.931061,82.296371 
	C158.942535,75.170418 158.519760,67.965981 158.191879,60.393738 
	C158.518280,59.993820 158.949417,59.987625 158.958771,60.448715 
	C158.973587,64.131081 158.890656,67.357422 159.074860,70.568436 
	C159.104263,71.080811 160.332062,71.524429 161.005829,71.999832 
z"/>
<path fill="#248124" opacity="1.000000" stroke="none" 
	d="
M158.949417,59.987625 
	C158.949417,59.987625 158.518280,59.993820 158.302734,59.997742 
	C159.226105,47.802399 163.947205,37.174362 172.078644,28.031939 
	C172.488632,27.570990 172.734222,26.963818 173.443420,26.751781 
	C173.922440,27.811659 174.014389,28.544477 174.106354,29.277298 
	C173.369385,30.692184 172.792938,32.222900 171.869186,33.502991 
	C166.264221,41.270199 162.916122,49.929985 160.869507,59.663208 
	C159.877029,59.985374 159.413223,59.986500 158.949417,59.987625 
z"/>
<path fill="#ECF3E7" opacity="1.000000" stroke="none" 
	d="
M221.018234,76.891983 
	C221.009537,77.691513 221.000839,78.491035 220.640320,79.494835 
	C217.635742,78.143745 215.277100,78.245773 213.668259,81.144791 
	C211.984161,84.179420 213.622208,86.031631 216.183884,87.446434 
	C214.243790,89.497856 212.693710,89.851028 210.869598,87.034729 
	C210.131805,85.895638 208.062759,85.618805 206.228394,84.563065 
	C205.175461,82.471619 204.493668,80.766708 204.216614,79.037758 
	C205.720566,78.769913 207.162781,78.887344 207.862595,78.222878 
	C211.966660,74.326118 216.542313,76.323593 221.018234,76.891983 
z"/>
<path fill="#0B0F0C" opacity="1.000000" stroke="none" 
	d="
M203.811874,79.061806 
	C204.493668,80.766708 205.175461,82.471619 205.796143,84.536484 
	C203.651703,87.552185 201.061295,88.734703 198.366791,86.149590 
	C195.779343,83.667168 196.912323,81.155563 200.070206,78.960144 
	C201.781754,78.899933 202.796814,78.980865 203.811874,79.061806 
z"/>
<path fill="#0B0E0B" opacity="1.000000" stroke="none" 
	d="
M216.536133,87.437447 
	C213.622208,86.031631 211.984161,84.179420 213.668259,81.144791 
	C215.277100,78.245773 217.635742,78.143745 220.627289,79.894409 
	C222.756622,85.138947 222.118774,86.286903 216.536133,87.437447 
z"/>
<path fill="#388337" opacity="1.000000" stroke="none" 
	d="
M169.550232,85.160004 
	C168.721207,85.050499 168.164871,84.983284 167.189545,84.887276 
	C172.947083,79.669502 180.456299,78.026970 188.897095,76.902168 
	C189.955750,77.239830 190.250580,77.506187 190.545425,77.772537 
	C190.394119,77.821663 190.243301,77.872337 190.091431,77.919678 
	C188.038269,78.559753 185.984970,79.199364 183.931702,79.839081 
	C183.497742,79.910843 183.063782,79.982605 182.047226,80.132065 
	C181.186661,80.419968 180.908676,80.630180 180.630692,80.840385 
	C177.028107,82.294350 173.425522,83.748314 169.550232,85.160004 
z"/>
<path fill="#D8F1D2" opacity="1.000000" stroke="none" 
	d="
M204.216614,79.037758 
	C202.796814,78.980865 201.781754,78.899933 200.385483,78.783592 
	C199.214371,78.194656 198.424454,77.641121 197.316589,77.096352 
	C196.991257,76.911880 196.983856,76.718658 197.440887,76.304962 
	C206.257355,75.678497 214.609360,75.272499 223.308502,74.910408 
	C224.114838,75.029793 224.574051,75.105263 225.033264,75.180733 
	C224.751862,75.616234 224.470459,76.051735 223.752716,76.729942 
	C222.883682,76.971779 222.451035,76.970909 222.018372,76.970039 
	C221.851715,76.957085 221.685059,76.944130 221.268311,76.911575 
	C216.542313,76.323593 211.966660,74.326118 207.862595,78.222878 
	C207.162781,78.887344 205.720566,78.769913 204.216614,79.037758 
z"/>
<path fill="#21811F" opacity="1.000000" stroke="none" 
	d="
M174.462204,29.204102 
	C174.014389,28.544477 173.922440,27.811659 173.745605,26.531303 
	C176.551941,23.375092 179.443161,20.766417 182.663239,18.080246 
	C183.509811,18.658346 184.027527,19.313938 184.883194,20.030273 
	C181.753433,23.104311 178.285736,26.117609 174.462204,29.204102 
z"/>
<path fill="#50924D" opacity="1.000000" stroke="none" 
	d="
M225.445251,75.124939 
	C224.574051,75.105263 224.114838,75.029793 223.448883,74.677155 
	C223.448471,73.915031 223.654800,73.430061 223.994354,72.841736 
	C224.127579,72.738373 224.427444,72.892685 224.427444,72.892685 
	C230.971283,73.297539 237.515137,73.702400 244.487961,74.020393 
	C244.391602,74.441681 243.866257,74.949837 243.180939,75.703445 
	C240.803680,75.795609 238.586395,75.642319 235.623672,75.376053 
	C233.254868,75.248940 231.631516,75.234802 230.008148,75.220665 
	C228.624512,75.170158 227.240875,75.119659 225.445251,75.124939 
z"/>
<path fill="#DBF7D2" opacity="1.000000" stroke="none" 
	d="
M184.166306,80.131409 
	C185.984970,79.199364 188.038269,78.559753 190.091431,77.919678 
	C190.243301,77.872337 190.394119,77.821663 190.545425,77.772537 
	C190.250580,77.506187 189.955750,77.239830 189.321350,76.891510 
	C192.218918,73.027763 192.853455,73.109840 194.714615,77.760475 
	C191.445694,78.809669 187.923294,79.616692 184.166306,80.131409 
z"/>
<path fill="#F5FCF5" opacity="1.000000" stroke="none" 
	d="
M175.674973,86.187920 
	C174.726471,90.380867 172.170166,93.023399 167.891785,93.643532 
	C167.513931,93.158066 167.136063,92.672600 166.758194,92.187134 
	C169.618530,90.168541 172.478851,88.149948 175.674973,86.187920 
z"/>
<path fill="#21811F" opacity="1.000000" stroke="none" 
	d="
M191.675110,12.863218 
	C190.862793,13.548553 189.702652,14.233497 188.191895,14.927166 
	C189.003281,14.244868 190.165283,13.553848 191.675110,12.863218 
z"/>
<path fill="#D8F1D2" opacity="1.000000" stroke="none" 
	d="
M230.334824,75.450645 
	C231.631516,75.234802 233.254868,75.248940 235.224182,75.486893 
	C233.933929,75.700676 232.297714,75.690651 230.334824,75.450645 
z"/>
<path fill="#21811F" opacity="1.000000" stroke="none" 
	d="
M230.881592,13.660826 
	C230.382248,13.780889 229.734161,13.639788 229.060974,13.200994 
	C229.601532,13.068756 230.167191,13.234209 230.881592,13.660826 
z"/>
<path fill="#ECF3E7" opacity="1.000000" stroke="none" 
	d="
M222.054184,77.266296 
	C222.451035,76.970909 222.883682,76.971779 223.640289,76.963638 
	C223.742889,77.470749 223.521545,77.986862 223.300201,78.502983 
	C222.896805,78.189507 222.493393,77.876030 222.054184,77.266296 
z"/>
<path fill="#21811F" opacity="1.000000" stroke="none" 
	d="
M200.696472,9.811624 
	C200.074295,10.195758 199.140686,10.560978 197.873047,10.888500 
	C198.487686,10.498105 199.436386,10.145407 200.696472,9.811624 
z"/>
<path fill="#21811F" opacity="1.000000" stroke="none" 
	d="
M207.759003,8.626375 
	C207.413559,8.935778 206.818298,9.142958 206.096436,9.140144 
	C206.482956,8.794818 206.996063,8.659486 207.759003,8.626375 
z"/>
<path fill="#21811F" opacity="1.000000" stroke="none" 
	d="
M196.670410,10.973479 
	C196.212479,11.330848 195.425278,11.662638 194.298950,11.979832 
	C194.753601,11.626124 195.547348,11.287012 196.670410,10.973479 
z"/>
<path fill="#21811F" opacity="1.000000" stroke="none" 
	d="
M224.813889,10.870958 
	C224.704453,11.003850 224.542160,10.953553 224.288986,10.792141 
	C224.377304,10.512822 224.564941,10.515070 224.813889,10.870958 
z"/>
<path fill="#21811F" opacity="1.000000" stroke="none" 
	d="
M221.806580,9.932224 
	C221.862854,10.029516 221.537567,9.991767 221.459137,9.968968 
	C221.380722,9.946170 221.750320,9.834931 221.806580,9.932224 
z"/>
<path fill="#21811F" opacity="1.000000" stroke="none" 
	d="
M217.749191,9.054111 
	C217.717300,9.208747 217.444611,9.279898 217.088257,9.199463 
	C217.172531,9.022127 217.340469,8.996378 217.749191,9.054111 
z"/>
<path fill="#DBF7D2" opacity="1.000000" stroke="none" 
	d="
M180.893280,80.844406 
	C180.908676,80.630180 181.186661,80.419968 181.734344,80.238647 
	C181.721313,80.461166 181.438583,80.654800 180.893280,80.844406 
z"/>
<path fill="#121711" opacity="1.000000" stroke="none" 
	d="
M224.527985,72.515114 
	C224.427444,72.892685 224.127579,72.738373 223.539734,72.872849 
	C214.344650,73.651924 205.737411,74.296532 197.130188,74.941147 
	C194.078674,64.158699 190.710785,53.451633 188.115906,42.560398 
	C186.910446,37.500851 185.104126,34.891541 179.576523,35.854912 
	C178.492950,36.043758 177.171158,34.865894 175.959244,34.318371 
	C177.216965,33.629940 178.444138,32.413349 179.737335,32.338589 
	C188.293350,31.843914 189.099991,32.259556 191.228165,40.971954 
	C192.294510,45.337372 194.155487,46.719292 198.663391,46.533863 
	C208.119629,46.144894 217.604462,46.451584 227.077545,46.471405 
	C228.680984,46.474758 230.284439,46.471882 233.028961,46.471882 
	C230.024429,55.651554 227.326492,63.894550 224.527985,72.515114 
M223.471741,63.964355 
	C224.969299,59.453484 226.466858,54.942608 228.000916,50.321789 
	C216.509232,50.321789 205.459747,50.321789 194.077225,50.321789 
	C195.894852,57.287460 197.635193,63.956940 199.465820,70.972366 
	C204.692856,70.972366 209.849274,70.580811 214.917496,71.081703 
	C220.059708,71.589905 222.651276,69.726669 223.471741,63.964355 
z"/>
<path fill="#195819" opacity="1.000000" stroke="none" 
	d="
M197.070221,75.189102 
	C205.737411,74.296532 214.344650,73.651924 223.406494,72.976204 
	C223.654800,73.430061 223.448471,73.915031 223.101776,74.633255 
	C214.609360,75.272499 206.257355,75.678497 197.463821,76.015808 
	C197.018295,75.777115 197.014267,75.607086 197.070221,75.189102 
z"/>
<path fill="#057A09" opacity="1.000000" stroke="none" 
	d="
M158.958771,60.448715 
	C159.413223,59.986500 159.877029,59.985374 160.688049,59.996124 
	C161.057541,63.699570 161.079788,67.391144 161.053925,71.541275 
	C160.332062,71.524429 159.104263,71.080811 159.074860,70.568436 
	C158.890656,67.357422 158.973587,64.131081 158.958771,60.448715 
z"/>
<path fill="#21811F" opacity="1.000000" stroke="none" 
	d="
M220.717865,13.397312 
	C221.150620,13.258329 221.834045,13.362902 222.756836,13.724395 
	C222.320312,13.867833 221.644409,13.754350 220.717865,13.397312 
z"/>
<path fill="#21811F" opacity="1.000000" stroke="none" 
	d="
M197.458893,14.159752 
	C197.390350,14.073607 197.680618,13.989356 197.756042,13.985865 
	C197.831482,13.982374 197.527420,14.245895 197.458893,14.159752 
z"/>
<path fill="#21811F" opacity="1.000000" stroke="none" 
	d="
M213.038116,12.138306 
	C212.934052,12.030845 213.423508,12.031229 213.542389,12.060778 
	C213.661255,12.090326 213.436859,12.285138 213.436859,12.285138 
	C213.436859,12.285138 213.142197,12.245768 213.038116,12.138306 
z"/>
<path fill="#21811F" opacity="1.000000" stroke="none" 
	d="
M206.806641,12.217760 
	C206.875412,12.093734 207.118271,12.069501 207.727020,12.045018 
	C207.722183,12.135696 207.351456,12.226625 206.806641,12.217760 
z"/>
<path fill="#ECF8E5" opacity="1.000000" stroke="none" 
	d="
M22.072237,46.023911 
	C22.072407,42.049049 22.072407,38.568470 22.072407,34.622616 
	C29.304483,34.217644 36.600620,32.871559 41.878368,39.328556 
	C46.180984,44.592537 46.356197,50.904827 43.419086,56.673935 
	C39.010525,65.333298 30.579771,63.931961 22.072067,63.813240 
	C22.072067,57.989246 22.072067,52.253716 22.072237,46.023911 
z"/>
<path fill="#E5F0DF" opacity="1.000000" stroke="none" 
	d="
M398.172363,43.428955 
	C393.953125,44.473633 389.993866,45.198921 385.519836,46.018509 
	C385.519836,41.352638 385.519836,37.644279 385.519836,32.536682 
	C389.870544,33.486435 394.258331,33.894234 398.040497,35.625343 
	C399.092560,36.106888 398.351013,40.507111 398.172363,43.428955 
z"/>
<path fill="#E1EBDD" opacity="1.000000" stroke="none" 
	d="
M343.229675,55.862949 
	C340.499146,56.133854 339.180176,55.619286 340.209167,52.939919 
	C341.922577,48.478508 343.582794,43.996674 345.602356,38.627651 
	C347.784058,44.724041 349.682739,50.029507 351.772583,55.869102 
	C348.588348,55.869102 346.136841,55.869102 343.229675,55.862949 
z"/>
<path fill="#E3EDDE" opacity="1.000000" stroke="none" 
	d="
M81.389847,43.363518 
	C81.979881,41.978092 82.385994,40.940617 83.228729,38.787758 
	C85.442131,44.877800 87.288666,49.958420 89.310791,55.522179 
	C85.148605,55.522179 81.455467,55.522179 77.106575,55.522179 
	C78.477013,51.573814 79.841476,47.642639 81.389847,43.363518 
z"/>
<path fill="#EFF9E8" opacity="1.000000" stroke="none" 
	d="
M223.330444,64.339981 
	C222.651276,69.726669 220.059708,71.589905 214.917496,71.081703 
	C209.849274,70.580811 204.692856,70.972366 199.465820,70.972366 
	C197.635193,63.956940 195.894852,57.287460 194.077225,50.321789 
	C205.459747,50.321789 216.509232,50.321789 228.000916,50.321789 
	C226.466858,54.942608 224.969299,59.453484 223.330444,64.339981 
z"/>
</svg>